<?xml version="1.0" encoding="UTF-8" standalone="no"?>
<svg
   id="svg6"
   xml:space="preserve"
   viewBox="0 0 692.02002 135.08"
   y="0px"
   x="0px"
   version="1.1"
   sodipodi:docname="brandmark-design-nobg.svg"
   width="692.02002"
   height="135.08"
   inkscape:version="1.1.2 (0a00cf5339, 2022-02-04)"
   xmlns:inkscape="http://www.inkscape.org/namespaces/inkscape"
   xmlns:sodipodi="http://sodipodi.sourceforge.net/DTD/sodipodi-0.dtd"
   xmlns="http://www.w3.org/2000/svg"
   xmlns:svg="http://www.w3.org/2000/svg"
   xmlns:rdf="http://www.w3.org/1999/02/22-rdf-syntax-ns#"
   xmlns:cc="http://creativecommons.org/ns#"
   xmlns:dc="http://purl.org/dc/elements/1.1/"><sodipodi:namedview
     id="namedview7"
     pagecolor="#ffffff"
     bordercolor="#666666"
     borderopacity="1.0"
     inkscape:pageshadow="2"
     inkscape:pageopacity="0.0"
     inkscape:pagecheckerboard="0"
     showgrid="false"
     fit-margin-top="0"
     fit-margin-left="0"
     fit-margin-right="0"
     fit-margin-bottom="0"
     inkscape:zoom="1.1367188"
     inkscape:cx="262.59794"
     inkscape:cy="-3.0790378"
     inkscape:window-width="1846"
     inkscape:window-height="1016"
     inkscape:window-x="0"
     inkscape:window-y="0"
     inkscape:window-maximized="1"
     inkscape:current-layer="svg6"
     inkscape:showpageshadow="2"
     inkscape:deskcolor="#d1d1d1" /><metadata
     id="metadata12"><rdf:RDF><cc:Work
         rdf:about=""><dc:format>image/svg+xml</dc:format><dc:type
           rdf:resource="http://purl.org/dc/dcmitype/StillImage" /></cc:Work></rdf:RDF></metadata><defs
     id="defs10" /><path
     id="path4"
     d="M 58.88,0 C 58.71,0 58.47,0.03 58.33,0.06 58.19,0.09 57.98,0.15 57.85,0.2 57.72,0.25 52.69,3.13 46.67,6.6 40.65,10.07 27.98,17.37 18.51,22.83 9.04,28.28 1.2,32.83 1.09,32.92 c -0.12,0.1 -0.3,0.28 -0.4,0.4 -0.1,0.12 -0.27,0.39 -0.37,0.6 -0.12,0.25 -0.21,0.5 -0.25,0.73 L 0,35 l 0.04,32.63 0.04,32.63 0.07,0.25 c 0.04,0.14 0.15,0.41 0.24,0.59 0.08,0.18 0.26,0.45 0.38,0.6 0.12,0.15 0.33,0.35 0.45,0.45 0.13,0.09 0.75,0.48 1.4,0.86 0.64,0.37 1.62,0.96 2.18,1.3 0.57,0.34 2.11,1.28 3.42,2.08 1.32,0.81 4.57,2.81 7.22,4.44 2.65,1.64 6.07,3.75 7.61,4.7 1.54,0.94 3.88,2.38 5.21,3.18 1.32,0.81 3.24,1.97 4.25,2.58 1.01,0.61 2.64,1.59 3.63,2.17 0.98,0.58 2.5,1.48 3.38,1.99 0.87,0.51 2.37,1.38 3.34,1.93 0.96,0.55 2.36,1.33 3.1,1.75 0.75,0.41 1.85,1.01 2.44,1.33 0.6,0.32 1.49,0.8 1.98,1.06 0.5,0.26 1.38,0.71 1.96,1 0.59,0.29 1.4,0.68 1.82,0.87 0.41,0.19 1.08,0.49 1.48,0.66 0.4,0.17 1.02,0.42 1.39,0.56 0.36,0.14 0.82,0.3 1.02,0.36 0.3,0.09 0.45,0.11 0.86,0.11 0.44,0 0.54,-0.01 0.87,-0.12 0.2,-0.06 0.48,-0.19 0.62,-0.27 0.15,-0.09 4.96,-2.87 10.71,-6.19 5.74,-3.33 11.04,-6.38 11.76,-6.8 0.72,-0.42 7.28,-4.21 14.57,-8.43 7.29,-4.21 13.9,-8.03 14.68,-8.48 0.78,-0.45 2.08,-1.2 2.9,-1.67 l 1.48,-0.86 0.37,-0.37 c 0.21,-0.21 0.44,-0.48 0.52,-0.61 0.07,-0.13 0.18,-0.37 0.24,-0.53 0.05,-0.16 0.11,-0.43 0.14,-0.6 0.02,-0.19 0.04,-12.78 0.05,-32.89 l 0.01,-32.59 -0.1,-0.29 c -0.05,-0.16 -0.16,-0.42 -0.24,-0.58 -0.08,-0.15 -0.28,-0.42 -0.44,-0.59 -0.15,-0.16 -0.4,-0.38 -0.54,-0.47 C 116.37,32.65 103.66,25.31 88.27,16.44 72.88,7.57 60.17,0.27 60.04,0.22 59.9,0.16 59.65,0.09 59.48,0.06 59.31,0.02 59.04,0 58.88,0 Z m 233.1,6.74 v 9.9 h 7.92 v -9.9 z m 20.74,0 v 65.7 h 7.02 v -8.82 c 1.71,2.88 4.05,5.22 7.11,7.02 2.97,1.8 6.3,2.7 9.99,2.7 3.06,0 6.03,-0.63 8.73,-1.89 2.7,-1.26 5.13,-3.06 7.11,-5.22 1.98,-2.16 3.51,-4.77 4.68,-7.74 1.08,-2.88 1.71,-6.03 1.71,-9.36 0,-3.06 -0.54,-6.12 -1.53,-9.09 -0.99,-2.97 -2.43,-5.58 -4.23,-7.83 -1.8,-2.25 -4.05,-4.05 -6.57,-5.49 -2.61,-1.35 -5.49,-2.07 -8.73,-2.07 -3.87,0 -7.2,0.99 -10.08,2.79 -2.88,1.89 -5.31,4.32 -7.29,7.38 V 6.74 Z M 60.07,7.13 c 0.01,0 9.94,5.72 22.07,12.72 12.13,7 23.08,13.31 24.33,14.03 1.24,0.72 2.24,1.32 2.21,1.33 -0.04,0.01 -6.16,1.11 -13.62,2.44 C 87.61,38.99 81.47,40.09 81.41,40.1 81.33,40.11 80.07,39.4 75.7,36.88 72.61,35.1 67.83,32.35 65.07,30.76 L 60.06,27.87 V 17.5 c -0.01,-5.71 0,-10.37 0.01,-10.37 z m -2.28,0 c 0.01,0 0.02,4.67 0.01,10.37 V 27.87 L 47.17,33.99 36.54,40.11 22.86,37.66 C 15.34,36.32 9.18,35.2 9.18,35.18 c 0,-0.01 0.83,-0.5 1.85,-1.09 C 12.04,33.51 22.98,27.2 35.33,20.08 47.68,12.96 57.79,7.13 57.79,7.13 Z m 423.27,0.96 c -4.41,0 -8.37,0.9 -12.06,2.7 -3.69,1.8 -6.84,4.14 -9.54,7.11 -2.7,3.06 -4.86,6.48 -6.39,10.35 -1.53,3.96 -2.25,8.01 -2.25,12.24 0,4.14 0.72,8.1 2.16,11.97 1.44,3.96 3.42,7.38 6.12,10.35 2.61,3.06 5.76,5.49 9.45,7.29 3.69,1.89 7.74,2.79 12.33,2.79 3.24,0 6.3,-0.45 9.18,-1.53 0.18,0 0.45,-0.18 0.81,-0.27 l -5.22,-6.03 c -1.44,0.36 -3.06,0.54 -4.68,0.54 -3.33,0 -6.3,-0.63 -9,-2.07 -2.7,-1.35 -5.04,-3.24 -6.93,-5.58 -1.98,-2.34 -3.42,-4.95 -4.5,-8.01 -1.08,-3.06 -1.53,-6.12 -1.53,-9.45 0,-3.06 0.45,-6.12 1.53,-9.18 0.99,-2.97 2.43,-5.67 4.32,-8.01 1.89,-2.34 4.23,-4.32 6.93,-5.76 2.7,-1.44 5.76,-2.16 9.18,-2.16 3.15,0 6.12,0.72 8.82,2.07 2.7,1.44 4.95,3.24 6.93,5.58 1.98,2.34 3.42,5.04 4.5,8.1 1.08,3.06 1.62,6.12 1.62,9.36 0,3.06 -0.54,6.03 -1.44,8.91 -0.99,2.88 -2.34,5.49 -4.05,7.83 l -4.86,-5.67 h -7.92 l 8.55,9.99 4.86,5.67 4.5,5.22 h 7.92 l -8.01,-9.27 c 2.61,-2.97 4.77,-6.39 6.3,-10.26 1.53,-3.87 2.34,-8.01 2.34,-12.33 0,-3.96 -0.72,-7.92 -2.16,-11.79 -1.44,-3.87 -3.51,-7.29 -6.12,-10.44 -2.7,-3.06 -5.85,-5.49 -9.45,-7.38 -3.69,-1.89 -7.83,-2.88 -12.24,-2.88 z m 114.65,0 c -3.33,0 -6.39,0.45 -9.18,1.26 -2.88,0.81 -5.31,1.98 -7.29,3.6 -2.07,1.62 -3.69,3.6 -4.77,5.94 -1.17,2.34 -1.71,5.04 -1.71,8.1 0,2.52 0.36,4.68 1.26,6.48 0.81,1.8 2.07,3.33 3.69,4.59 1.62,1.26 3.69,2.34 6.21,3.24 2.43,0.9 5.31,1.8 8.55,2.52 2.88,0.72 5.49,1.44 7.83,2.16 2.34,0.72 4.23,1.44 5.85,2.34 1.53,0.9 2.7,1.98 3.51,3.24 0.81,1.26 1.26,2.7 1.26,4.5 0,3.24 -1.26,5.67 -3.78,7.29 -2.52,1.62 -6.12,2.43 -10.62,2.43 -2.52,0 -4.86,-0.18 -7.11,-0.72 -2.25,-0.54 -4.32,-1.17 -6.3,-1.98 -1.98,-0.81 -3.69,-1.71 -5.22,-2.79 -1.53,-0.99 -2.79,-1.98 -3.69,-3.06 l -3.87,6.84 c 3.6,2.97 7.56,5.22 11.97,6.75 4.41,1.53 9.09,2.25 14.04,2.25 3.24,0 6.3,-0.27 9.18,-0.99 2.79,-0.72 5.22,-1.8 7.29,-3.24 2.07,-1.44 3.69,-3.33 4.95,-5.58 1.17,-2.25 1.8,-4.95 1.8,-8.01 0,-2.88 -0.54,-5.31 -1.53,-7.29 -0.99,-1.98 -2.43,-3.6 -4.32,-5.04 -1.89,-1.35 -4.14,-2.52 -6.84,-3.42 -2.7,-0.9 -5.67,-1.8 -8.91,-2.52 -2.88,-0.63 -5.4,-1.26 -7.47,-1.89 -2.16,-0.54 -3.87,-1.26 -5.31,-2.07 -1.44,-0.81 -2.43,-1.8 -3.06,-2.97 -0.72,-1.08 -0.99,-2.52 -0.99,-4.32 0,-3.24 1.08,-5.76 3.42,-7.65 2.34,-1.8 5.94,-2.79 10.98,-2.79 1.89,0 3.69,0.27 5.49,0.63 1.8,0.36 3.42,0.9 4.95,1.53 1.44,0.63 2.79,1.35 4.05,2.07 1.17,0.81 2.16,1.62 2.88,2.43 l 3.78,-6.57 c -2.7,-2.16 -5.85,-3.96 -9.27,-5.31 -3.51,-1.26 -7.38,-1.98 -11.7,-1.98 z M 240.68,8.54 v 48.6 h 8.1 V 8.54 Z m 180.64,16.11 c -3.6,0 -6.84,0.72 -9.72,1.98 -2.97,1.26 -5.49,3.06 -7.65,5.22 -2.16,2.25 -3.78,4.86 -4.95,7.74 -1.17,2.97 -1.71,6.12 -1.71,9.36 0,3.33 0.54,6.48 1.71,9.45 1.17,2.97 2.79,5.58 4.95,7.74 2.07,2.25 4.59,4.05 7.56,5.31 2.88,1.26 6.12,1.89 9.72,1.89 2.34,0 4.59,-0.27 6.75,-0.9 2.16,-0.54 4.05,-1.35 5.85,-2.43 1.8,-1.08 3.33,-2.34 4.68,-3.78 1.35,-1.44 2.43,-2.97 3.24,-4.77 l -6.84,-1.89 c -0.54,1.26 -1.26,2.34 -2.16,3.24 -0.9,0.99 -1.98,1.8 -3.15,2.43 -1.26,0.72 -2.52,1.26 -3.87,1.62 -1.44,0.36 -2.79,0.54 -4.23,0.54 -2.07,0 -4.05,-0.36 -5.85,-1.17 -1.8,-0.72 -3.42,-1.8 -4.86,-3.24 -1.44,-1.35 -2.61,-2.97 -3.51,-4.95 -0.9,-1.89 -1.44,-4.05 -1.62,-6.39 h 38.97 c 0,-0.27 0.09,-0.72 0.09,-1.26 0,-0.54 0.09,-1.08 0.09,-1.8 0,-3.06 -0.63,-6.12 -1.71,-9 -1.08,-2.88 -2.7,-5.49 -4.68,-7.65 -2.07,-2.16 -4.59,-3.96 -7.47,-5.31 -2.88,-1.26 -6.12,-1.98 -9.63,-1.98 z m 120.05,0 c -3.51,0 -6.75,0.72 -9.63,1.98 -2.88,1.35 -5.4,3.15 -7.47,5.31 -2.07,2.25 -3.69,4.86 -4.86,7.74 -1.17,2.97 -1.71,6.12 -1.71,9.36 0,3.24 0.54,6.39 1.71,9.27 1.08,2.97 2.7,5.58 4.77,7.74 2.07,2.25 4.59,4.05 7.47,5.31 2.88,1.35 6.12,1.98 9.72,1.98 3.51,0 6.75,-0.63 9.63,-1.98 2.88,-1.26 5.4,-3.06 7.56,-5.31 2.07,-2.16 3.69,-4.77 4.86,-7.74 1.08,-2.88 1.71,-6.03 1.71,-9.27 0,-3.24 -0.63,-6.39 -1.8,-9.36 -1.17,-2.88 -2.79,-5.49 -4.86,-7.74 -2.07,-2.16 -4.59,-3.96 -7.47,-5.31 -2.97,-1.26 -6.21,-1.98 -9.63,-1.98 z M 391.03,25.1 c -3.06,0.27 -5.85,1.44 -8.46,3.42 -2.7,1.98 -4.77,4.59 -6.39,7.83 V 25.46 h -7.38 v 46.98 h 7.92 V 43.46 c 1.26,-3.42 3.33,-6.03 6.39,-8.01 3.06,-1.89 6.57,-2.88 10.53,-3.06 v -7.2 c -0.36,0 -0.72,-0.09 -1.08,-0.09 z m -99.05,0.36 v 46.98 h 7.92 V 25.46 Z m -232.3,4.81 0.14,0.07 c 0.08,0.04 4.39,2.53 9.57,5.52 5.19,2.99 9.43,5.45 9.43,5.46 0,0.01 -4.29,2.49 -9.54,5.51 -5.26,3.03 -9.56,5.5 -9.57,5.5 -0.02,0 -0.03,-4.96 -0.03,-11.03 z m -1.53,0 c 0.02,0 0.03,4.96 0.03,11.03 0,6.07 -0.02,11.03 -0.04,11.03 -0.01,0 -3.88,-2.22 -8.58,-4.92 -4.69,-2.71 -8.98,-5.19 -9.53,-5.5 -0.54,-0.31 -0.99,-0.58 -0.99,-0.59 0,-0.01 2.7,-1.58 5.99,-3.48 3.3,-1.9 7.59,-4.39 9.54,-5.51 1.95,-1.13 3.56,-2.06 3.58,-2.06 z m 363.17,0.32 c 2.07,0 4.05,0.45 5.94,1.17 1.8,0.72 3.42,1.8 4.86,3.06 1.44,1.35 2.61,2.97 3.51,4.86 0.9,1.89 1.53,3.96 1.71,6.12 h -31.86 c 0.18,-2.16 0.63,-4.23 1.53,-6.12 0.9,-1.8 1.98,-3.42 3.42,-4.77 1.44,-1.35 3.06,-2.43 4.95,-3.15 1.8,-0.72 3.78,-1.17 5.94,-1.17 z m -85.74,0.9 c 2.25,0 4.32,0.54 6.21,1.53 1.89,0.99 3.51,2.25 4.86,3.87 1.35,1.62 2.43,3.51 3.15,5.67 0.72,2.16 1.17,4.32 1.17,6.57 0,2.34 -0.45,4.5 -1.17,6.57 -0.81,2.07 -1.89,3.87 -3.33,5.49 -1.44,1.62 -3.15,2.97 -5.13,3.87 -1.98,0.99 -4.14,1.44 -6.48,1.44 -1.44,0 -2.97,-0.27 -4.5,-0.81 -1.53,-0.54 -2.97,-1.26 -4.32,-2.16 -1.35,-0.9 -2.52,-2.07 -3.51,-3.33 -0.99,-1.26 -1.62,-2.61 -1.89,-4.14 V 42.47 c 0.72,-1.44 1.53,-2.88 2.52,-4.23 0.99,-1.26 2.16,-2.43 3.42,-3.42 1.26,-0.99 2.7,-1.8 4.23,-2.43 1.44,-0.54 3.06,-0.9 4.77,-0.9 z m 205.79,0 c 2.16,0 4.14,0.45 6.03,1.35 1.89,0.9 3.6,2.16 5.04,3.78 1.44,1.62 2.52,3.42 3.33,5.58 0.81,2.16 1.26,4.41 1.26,6.75 0,2.52 -0.45,4.77 -1.26,6.93 -0.81,2.16 -1.89,3.96 -3.33,5.58 -1.44,1.62 -3.15,2.79 -5.04,3.69 -1.89,0.9 -3.87,1.35 -6.03,1.35 -2.16,0 -4.23,-0.45 -6.12,-1.35 -1.89,-0.9 -3.51,-2.07 -4.95,-3.69 -1.44,-1.53 -2.52,-3.33 -3.33,-5.49 -0.81,-2.07 -1.17,-4.32 -1.17,-6.84 0,-2.43 0.36,-4.68 1.17,-6.84 0.81,-2.16 1.89,-3.96 3.33,-5.58 1.44,-1.62 3.06,-2.88 4.95,-3.78 1.89,-0.9 3.96,-1.44 6.12,-1.44 z M 105.3,38.11 c 0.03,0 0.05,0.01 0.04,0.02 -0.01,0 -10.19,5.87 -22.62,13.03 -12.43,7.16 -22.61,13.03 -22.63,13.04 -0.02,0.01 -0.03,-2.11 -0.02,-4.72 l 0.01,-4.74 10.59,-6.12 c 5.83,-3.36 10.65,-6.15 10.72,-6.18 0.07,-0.04 0.89,-0.21 1.91,-0.39 0.99,-0.17 2.36,-0.42 3.05,-0.54 0.69,-0.13 2.68,-0.48 4.42,-0.79 1.74,-0.32 4.58,-0.82 6.3,-1.13 1.72,-0.31 4.26,-0.77 5.65,-1.02 1.38,-0.25 2.55,-0.45 2.58,-0.46 z m -92.78,0.01 c -0.01,-0.01 0.03,-0.01 0.1,0 0.07,0.02 5.44,0.98 11.93,2.14 l 11.8,2.12 10.72,6.18 10.71,6.18 0.01,4.74 c 0.01,2.61 0,4.73 -0.02,4.72 C 57.76,64.19 48.57,58.89 37.35,52.43 26.13,45.97 15.96,40.11 14.75,39.41 13.53,38.71 12.53,38.13 12.52,38.12 Z m 99.28,2.46 v 28.06 c 0,15.43 -0.01,28.06 -0.03,28.06 -0.02,0 -4.02,-2.3 -8.89,-5.12 -4.87,-2.81 -8.9,-5.13 -8.95,-5.15 l -0.1,-0.04 V 61.85 l 8.98,-10.64 c 4.93,-5.85 8.98,-10.63 8.99,-10.63 z M 6.06,40.61 c 0.04,0.04 4.09,4.83 9.01,10.65 l 8.95,10.59 v 12.26 12.27 l -8.93,5.15 C 10.18,94.36 6.14,96.68 6.11,96.69 6.06,96.7 6.05,95.31 6.05,87.47 6.05,82.39 6.04,69.76 6.02,59.39 6,42.61 6,40.56 6.06,40.61 Z m 4.14,1.41 0.08,0.04 c 0.05,0.03 10.22,5.91 22.62,13.07 12.39,7.17 22.53,13.05 22.53,13.07 0,0.02 -0.5,0.33 -1.12,0.69 -0.61,0.35 -2.44,1.41 -4.06,2.34 l -2.95,1.7 -8.6,-4.98 C 33.96,65.21 29.14,62.42 27.98,61.75 L 25.87,60.52 18.1,51.35 C 13.83,46.3 10.3,42.14 10.27,42.09 Z m 97.34,0.05 c 0,0 0.01,0.01 0.01,0.02 0,0.01 -3.51,4.16 -7.79,9.23 l -7.78,9.2 -10.71,6.21 -10.72,6.2 -2.36,-1.36 c -1.3,-0.75 -3.13,-1.8 -4.06,-2.34 -0.92,-0.54 -1.7,-0.99 -1.72,-1.01 -0.02,-0.02 0.03,-0.07 0.11,-0.12 0.07,-0.04 1.78,-1.03 3.78,-2.19 2.01,-1.16 12.11,-7 22.44,-12.97 10.33,-5.98 18.79,-10.87 18.8,-10.87 z m -15.98,21.32 0.01,6.99 c 0,3.85 0,8.81 -0.02,11.04 l -0.03,4.04 -9.54,-5.5 c -5.24,-3.03 -9.52,-5.52 -9.51,-5.53 0.01,-0.01 4.31,-2.5 9.55,-5.53 z m -65.25,0 c 0.02,0.01 4.31,2.49 9.54,5.52 5.23,3.02 9.52,5.5 9.54,5.51 0.01,0.02 -4.19,2.46 -9.34,5.43 -5.15,2.97 -9.46,5.45 -9.57,5.52 l -0.2,0.11 V 74.43 c 0,-6.08 0.01,-11.05 0.03,-11.04 z m 214.37,1.85 v 7.2 h 43.74 v -7.2 z M 56.6,70.18 c 0.02,0 0.03,11.74 0.03,26.09 0,14.35 0,26.08 -0.01,26.07 -0.01,-0.01 -1.85,-5.12 -4.09,-11.36 L 48.45,99.64 48.43,87.26 48.41,74.87 52.49,72.53 c 2.25,-1.29 4.1,-2.35 4.11,-2.35 z m 4.65,0 c 0.01,0 1.85,1.06 4.08,2.34 l 4.06,2.34 v 24.82 l -4.06,11.28 c -2.24,6.21 -4.09,11.32 -4.11,11.37 -0.03,0.05 -0.03,-4.94 -0.02,-15.41 0.01,-8.52 0.02,-20.27 0.02,-26.11 0,-5.85 0.01,-10.63 0.03,-10.63 z m -15.1,5.58 0.01,5.53 v 11.05 l -0.01,5.52 -5.36,-3.11 c -2.95,-1.7 -7.24,-4.19 -9.54,-5.52 -2.3,-1.34 -4.18,-2.44 -4.18,-2.45 0,-0.02 4.29,-2.5 9.54,-5.52 z m 25.55,0.01 c 0.01,0 4.29,2.46 9.52,5.48 5.23,3.02 9.52,5.5 9.53,5.52 0.02,0.01 -4.17,2.46 -9.31,5.45 -5.14,2.98 -9.44,5.47 -9.55,5.53 l -0.2,0.12 V 86.82 c 0,-6.08 0,-11.05 0.01,-11.05 z M 25.15,88.33 c 0.02,0 4.8,2.76 10.64,6.13 l 10.61,6.14 4.7,13.07 c 2.59,7.19 4.7,13.07 4.69,13.08 -0.01,0.01 -4.1,-2.34 -9.08,-5.22 -4.99,-2.88 -9.66,-5.58 -10.38,-6 -0.72,-0.42 -4.75,-2.74 -8.94,-5.17 -4.2,-2.42 -9.02,-5.21 -10.7,-6.18 C 15,103.2 13.15,102.13 12.56,101.79 11.98,101.45 10.6,100.65 9.5,100.02 8.4,99.38 7.43,98.83 7.36,98.78 L 7.22,98.7 10.28,96.93 c 1.68,-0.97 5.71,-3.3 8.95,-5.18 3.25,-1.88 5.91,-3.42 5.92,-3.42 z m 67.56,0 c 0.02,0.01 4.05,2.34 8.97,5.18 4.92,2.85 8.94,5.19 8.92,5.2 -0.01,0.02 -10.94,6.34 -24.27,14.05 -13.33,7.71 -24.25,14.01 -24.26,13.99 -0.01,-0.01 2.1,-5.9 4.69,-13.08 l 4.7,-13.06 0.67,-0.39 c 0.37,-0.22 5.14,-2.98 10.61,-6.14 5.47,-3.16 9.96,-5.75 9.97,-5.75 z m 185.77,4.81 -3.51,29.1 h 1.83 l 3.55,-29.1 z m 52.79,0 -3.52,29.1 h 0.94 c 0.24,0 0.4,-0.05 0.48,-0.16 0.08,-0.11 0.16,-0.27 0.22,-0.48 l 0.38,-2.16 c 0.56,1.01 1.31,1.78 2.24,2.3 0.95,0.51 1.98,0.76 3.1,0.76 0.96,0 1.87,-0.19 2.72,-0.56 0.87,-0.39 1.67,-0.91 2.39,-1.56 0.72,-0.65 1.35,-1.42 1.91,-2.3 0.58,-0.88 1.06,-1.81 1.44,-2.8 0.4,-1 0.71,-2.03 0.92,-3.08 0.22,-1.07 0.32,-2.11 0.32,-3.14 0,-1.07 -0.11,-2.03 -0.34,-2.9 -0.22,-0.87 -0.56,-1.6 -1,-2.2 -0.44,-0.61 -0.98,-1.09 -1.64,-1.42 -0.65,-0.33 -1.41,-0.5 -2.28,-0.5 -0.8,0 -1.59,0.17 -2.38,0.52 -0.77,0.33 -1.52,0.81 -2.24,1.42 -0.7,0.61 -1.38,1.35 -2.02,2.22 -0.62,0.85 -1.2,1.81 -1.72,2.86 l 1.94,-15.92 z m 20.81,0 -3.52,29.1 h 1.84 l 3.54,-29.1 z m 124.49,0.44 c -0.84,0 -1.63,0.15 -2.36,0.44 -0.74,0.28 -1.39,0.71 -1.98,1.28 -0.57,0.57 -1.06,1.29 -1.44,2.16 -0.39,0.85 -0.65,1.85 -0.8,2.98 l -0.32,2.52 h -3.04 l -0.08,0.74 c -0.02,0.16 0.02,0.28 0.1,0.36 0.08,0.08 0.2,0.13 0.36,0.16 l 2.5,0.16 -2.78,22.86 h 0.68 c 0.49,0 0.82,-0.27 0.98,-0.82 l 0.84,-4.6 2.12,-17.46 h 5.54 l 0.2,-1.4 h -5.62 l 0.32,-2.46 c 0.12,-1 0.33,-1.85 0.62,-2.54 0.29,-0.69 0.65,-1.25 1.08,-1.68 0.43,-0.44 0.9,-0.76 1.44,-0.96 0.53,-0.2 1.11,-0.3 1.72,-0.3 0.28,0 0.53,0.02 0.74,0.06 0.21,0.03 0.39,0.05 0.54,0.08 0.16,0.01 0.29,0.01 0.38,0 0.09,-0.03 0.15,-0.09 0.18,-0.2 l 0.2,-0.96 c -0.31,-0.13 -0.65,-0.23 -1.02,-0.3 -0.36,-0.08 -0.73,-0.12 -1.1,-0.12 z m -75.86,0.04 c -2.04,0 -3.94,0.4 -5.7,1.2 -1.75,0.8 -3.27,1.93 -4.56,3.4 -1.28,1.45 -2.29,3.21 -3.02,5.26 -0.74,2.04 -1.1,4.3 -1.1,6.78 0,1.83 0.25,3.49 0.76,5 0.5,1.51 1.22,2.8 2.16,3.88 0.94,1.08 2.08,1.92 3.42,2.52 1.33,0.59 2.82,0.88 4.48,0.88 0.96,0 1.88,-0.09 2.76,-0.26 0.88,-0.17 1.72,-0.43 2.54,-0.76 l 4.76,6.48 c 0.26,0.32 0.66,0.48 1.18,0.48 h 1.56 l -5.8,-7.78 c 1.12,-0.65 2.13,-1.47 3.04,-2.46 0.92,-0.99 1.7,-2.11 2.34,-3.36 0.65,-1.25 1.15,-2.63 1.5,-4.14 0.36,-1.51 0.54,-3.11 0.54,-4.82 0,-1.83 -0.26,-3.49 -0.76,-5 -0.51,-1.52 -1.24,-2.82 -2.18,-3.9 -0.94,-1.08 -2.08,-1.91 -3.42,-2.5 -1.34,-0.6 -2.84,-0.9 -4.5,-0.9 z m 131.07,0 c -1.35,0 -2.55,0.23 -3.6,0.68 -1.05,0.45 -1.95,1.07 -2.68,1.84 -0.72,0.76 -1.27,1.64 -1.66,2.64 -0.39,1 -0.58,2.04 -0.58,3.12 0,1 0.16,1.85 0.48,2.54 0.33,0.68 0.77,1.26 1.3,1.74 0.55,0.47 1.17,0.86 1.86,1.18 0.69,0.32 1.4,0.61 2.12,0.88 0.72,0.27 1.42,0.53 2.1,0.8 0.69,0.27 1.31,0.59 1.84,0.98 0.55,0.39 0.99,0.86 1.32,1.42 0.33,0.55 0.5,1.23 0.5,2.06 0,1.04 -0.17,2.01 -0.52,2.92 -0.33,0.89 -0.82,1.67 -1.46,2.34 -0.64,0.67 -1.41,1.19 -2.32,1.58 -0.91,0.37 -1.92,0.56 -3.04,0.56 -0.75,0 -1.41,-0.08 -1.98,-0.24 -0.56,-0.16 -1.05,-0.35 -1.48,-0.58 -0.43,-0.24 -0.79,-0.49 -1.1,-0.76 -0.29,-0.28 -0.55,-0.53 -0.78,-0.76 -0.21,-0.24 -0.4,-0.44 -0.56,-0.6 -0.15,-0.16 -0.28,-0.24 -0.4,-0.24 -0.19,0 -0.37,0.09 -0.56,0.28 l -0.66,0.86 c 0.8,1.15 1.79,2.05 2.96,2.72 1.17,0.65 2.61,0.98 4.32,0.98 1.45,0 2.77,-0.25 3.94,-0.76 1.17,-0.51 2.17,-1.19 2.98,-2.04 0.83,-0.87 1.46,-1.87 1.9,-3.02 0.44,-1.16 0.66,-2.38 0.66,-3.66 0,-0.97 -0.17,-1.79 -0.5,-2.46 -0.33,-0.67 -0.77,-1.23 -1.32,-1.7 -0.53,-0.47 -1.15,-0.86 -1.84,-1.18 -0.68,-0.33 -1.39,-0.63 -2.12,-0.9 -0.72,-0.28 -1.43,-0.56 -2.12,-0.84 -0.68,-0.29 -1.29,-0.63 -1.84,-1.02 -0.53,-0.4 -0.97,-0.87 -1.3,-1.42 -0.33,-0.56 -0.5,-1.25 -0.5,-2.06 0,-0.85 0.15,-1.65 0.44,-2.4 0.29,-0.76 0.71,-1.42 1.26,-1.98 0.56,-0.57 1.23,-1.02 2.02,-1.34 0.8,-0.33 1.71,-0.5 2.72,-0.5 0.93,0 1.71,0.13 2.32,0.38 0.63,0.25 1.13,0.53 1.52,0.84 0.4,0.29 0.71,0.57 0.94,0.82 0.23,0.25 0.42,0.38 0.58,0.38 0.2,0 0.37,-0.11 0.52,-0.34 l 0.56,-0.8 c -0.75,-0.96 -1.63,-1.69 -2.66,-2.18 -1.03,-0.51 -2.22,-0.76 -3.58,-0.76 z m 117.34,0 c -1.34,0 -2.54,0.23 -3.6,0.68 -1.05,0.45 -1.94,1.07 -2.68,1.84 -0.72,0.76 -1.27,1.64 -1.66,2.64 -0.38,1 -0.58,2.04 -0.58,3.12 0,1 0.16,1.85 0.48,2.54 0.34,0.68 0.77,1.26 1.3,1.74 0.55,0.47 1.17,0.86 1.86,1.18 0.7,0.32 1.4,0.61 2.12,0.88 0.72,0.27 1.42,0.53 2.1,0.8 0.7,0.27 1.31,0.59 1.84,0.98 0.55,0.39 0.99,0.86 1.32,1.42 0.34,0.55 0.5,1.23 0.5,2.06 0,1.04 -0.17,2.01 -0.52,2.92 -0.33,0.89 -0.82,1.67 -1.46,2.34 -0.64,0.67 -1.41,1.19 -2.32,1.58 -0.9,0.37 -1.92,0.56 -3.04,0.56 -0.74,0 -1.4,-0.08 -1.98,-0.24 -0.56,-0.16 -1.05,-0.35 -1.48,-0.58 -0.42,-0.24 -0.79,-0.49 -1.1,-0.76 -0.29,-0.28 -0.55,-0.53 -0.78,-0.76 -0.21,-0.24 -0.4,-0.44 -0.56,-0.6 -0.14,-0.16 -0.28,-0.24 -0.4,-0.24 -0.18,0 -0.37,0.09 -0.56,0.28 l -0.66,0.86 c 0.8,1.15 1.79,2.05 2.96,2.72 1.18,0.65 2.62,0.98 4.32,0.98 1.46,0 2.77,-0.25 3.94,-0.76 1.18,-0.51 2.17,-1.19 2.98,-2.04 0.83,-0.87 1.46,-1.87 1.9,-3.02 0.44,-1.16 0.66,-2.38 0.66,-3.66 0,-0.97 -0.16,-1.79 -0.5,-2.46 -0.33,-0.67 -0.77,-1.23 -1.32,-1.7 -0.53,-0.47 -1.14,-0.86 -1.84,-1.18 -0.68,-0.33 -1.38,-0.63 -2.12,-0.9 -0.72,-0.28 -1.42,-0.56 -2.12,-0.84 -0.68,-0.29 -1.29,-0.63 -1.84,-1.02 -0.53,-0.4 -0.96,-0.87 -1.3,-1.42 -0.33,-0.56 -0.5,-1.25 -0.5,-2.06 0,-0.85 0.15,-1.65 0.44,-2.4 0.3,-0.76 0.72,-1.42 1.26,-1.98 0.56,-0.57 1.24,-1.02 2.02,-1.34 0.8,-0.33 1.71,-0.5 2.72,-0.5 0.94,0 1.71,0.13 2.32,0.38 0.63,0.25 1.14,0.53 1.52,0.84 0.4,0.29 0.72,0.57 0.94,0.82 0.23,0.25 0.42,0.38 0.58,0.38 0.2,0 0.38,-0.11 0.52,-0.34 l 0.56,-0.8 c -0.74,-0.96 -1.63,-1.69 -2.66,-2.18 -1.02,-0.51 -2.22,-0.76 -3.58,-0.76 z M 323.58,93.7 c -0.23,0 -0.44,0.05 -0.64,0.14 -0.2,0.09 -0.38,0.23 -0.54,0.4 -0.15,0.16 -0.27,0.35 -0.36,0.56 -0.1,0.21 -0.14,0.44 -0.14,0.68 0,0.24 0.04,0.47 0.14,0.68 0.09,0.2 0.21,0.38 0.36,0.54 0.14,0.16 0.32,0.29 0.52,0.38 0.2,0.09 0.41,0.14 0.64,0.14 0.21,0 0.42,-0.05 0.62,-0.14 0.21,-0.09 0.4,-0.22 0.56,-0.38 0.16,-0.16 0.28,-0.34 0.38,-0.54 0.1,-0.21 0.16,-0.44 0.16,-0.68 0,-0.24 -0.05,-0.47 -0.14,-0.68 -0.1,-0.23 -0.22,-0.42 -0.38,-0.58 -0.16,-0.16 -0.35,-0.29 -0.56,-0.38 -0.2,-0.09 -0.41,-0.14 -0.62,-0.14 z m -151.88,0.24 -3.48,28.3 h 2 l 1.6,-13.02 h 11.78 l 0.24,-1.66 h -11.82 l 1.48,-11.98 h 13.62 l 0.22,-1.64 z m 86.72,0 -3.48,28.3 h 2 l 1.6,-13.02 h 11.78 l 0.24,-1.66 h -11.82 l 1.48,-11.98 h 13.62 l 0.22,-1.64 z m 180.63,0 -3.48,28.3 h 15.66 l 0.22,-1.64 h -13.68 l 1.46,-11.9 h 11.32 l 0.22,-1.6 h -11.34 l 1.42,-11.52 h 13.62 l 0.22,-1.64 z m 193.57,0 -3.46,28.3 h 2 l 3.46,-28.3 z m 29.85,0 -3.47,28.3 h 1.98 l 1.41,-11.42 h 4.8 c 1.57,0 3,-0.24 4.28,-0.72 1.28,-0.48 2.37,-1.15 3.27,-2 0.91,-0.87 1.61,-1.89 2.1,-3.08 0.5,-1.2 0.74,-2.52 0.74,-3.96 0,-2.25 -0.69,-4 -2.08,-5.24 -1.38,-1.25 -3.46,-1.88 -6.24,-1.88 z m -261.98,1.34 c 1.37,0 2.61,0.25 3.72,0.76 1.12,0.49 2.07,1.21 2.86,2.14 0.78,0.92 1.38,2.04 1.8,3.36 0.42,1.31 0.64,2.78 0.64,4.42 0,2.31 -0.31,4.38 -0.92,6.22 -0.6,1.83 -1.44,3.39 -2.52,4.68 -1.08,1.29 -2.36,2.29 -3.84,2.98 -1.48,0.68 -3.1,1.02 -4.86,1.02 -1.38,0 -2.62,-0.25 -3.72,-0.74 -1.11,-0.51 -2.06,-1.22 -2.84,-2.14 -0.79,-0.92 -1.4,-2.03 -1.82,-3.34 -0.43,-1.32 -0.64,-2.8 -0.64,-4.44 0,-2.29 0.3,-4.36 0.92,-6.2 0.61,-1.84 1.46,-3.41 2.54,-4.7 1.09,-1.29 2.38,-2.29 3.86,-2.98 1.48,-0.69 3.08,-1.04 4.82,-1.04 z M 227,95.36 c -0.14,0 -0.25,0.05 -0.34,0.14 -0.1,0.09 -0.16,0.2 -0.18,0.32 l -1.32,7.12 -3.14,0.24 -0.1,0.74 c -0.03,0.15 0,0.26 0.08,0.34 0.08,0.08 0.18,0.12 0.32,0.12 h 2.62 l -1.36,11.3 c -0.08,0.59 -0.14,1.07 -0.18,1.46 -0.04,0.37 -0.08,0.68 -0.1,0.92 -0.02,0.24 -0.03,0.42 -0.04,0.54 v 0.3 c 0.01,1.24 0.32,2.16 0.94,2.76 0.62,0.6 1.48,0.9 2.58,0.9 0.76,0 1.52,-0.17 2.28,-0.5 0.76,-0.35 1.4,-0.8 1.94,-1.36 l -0.36,-0.84 c -0.07,-0.13 -0.17,-0.2 -0.3,-0.2 -0.08,0 -0.2,0.07 -0.36,0.22 -0.16,0.13 -0.37,0.29 -0.62,0.46 -0.26,0.16 -0.56,0.31 -0.9,0.46 -0.34,0.13 -0.72,0.2 -1.16,0.2 -0.64,0 -1.17,-0.19 -1.58,-0.58 -0.4,-0.39 -0.6,-1.01 -0.6,-1.88 v -0.24 c 0.01,-0.11 0.02,-0.27 0.04,-0.48 0.02,-0.23 0.06,-0.51 0.1,-0.86 0.05,-0.35 0.11,-0.79 0.18,-1.34 l 1.38,-11.24 h 5.76 l 0.16,-1.42 h -5.76 l 0.94,-7.6 z m 382.73,0 c -0.13,0 -0.25,0.05 -0.34,0.14 -0.09,0.09 -0.15,0.2 -0.18,0.32 l -1.32,7.12 -3.14,0.24 -0.1,0.74 c -0.03,0.15 0,0.26 0.08,0.34 0.08,0.08 0.19,0.12 0.32,0.12 h 2.62 l -1.36,11.3 c -0.08,0.59 -0.14,1.07 -0.18,1.46 -0.04,0.37 -0.07,0.68 -0.1,0.92 -0.01,0.24 -0.03,0.42 -0.04,0.54 v 0.3 c 0.01,1.24 0.33,2.16 0.94,2.76 0.63,0.6 1.49,0.9 2.58,0.9 0.76,0 1.52,-0.17 2.28,-0.5 0.76,-0.35 1.41,-0.8 1.94,-1.36 l -0.36,-0.84 c -0.07,-0.13 -0.17,-0.2 -0.3,-0.2 -0.08,0 -0.2,0.07 -0.36,0.22 -0.16,0.13 -0.36,0.29 -0.62,0.46 -0.25,0.16 -0.55,0.31 -0.9,0.46 -0.33,0.13 -0.72,0.2 -1.16,0.2 -0.64,0 -1.17,-0.19 -1.58,-0.58 -0.4,-0.39 -0.6,-1.01 -0.6,-1.88 v -0.24 c 0.02,-0.11 0.03,-0.27 0.04,-0.48 0.03,-0.23 0.06,-0.51 0.1,-0.86 0.05,-0.35 0.11,-0.79 0.18,-1.34 l 1.38,-11.24 h 5.76 l 0.16,-1.42 h -5.76 l 0.94,-7.6 z m 54.53,0.16 h 4.8 c 2.18,0 3.81,0.51 4.89,1.52 1.09,1 1.63,2.41 1.63,4.22 0,1.15 -0.19,2.21 -0.58,3.18 -0.38,0.97 -0.94,1.81 -1.66,2.52 -0.7,0.71 -1.56,1.26 -2.58,1.66 -1,0.4 -2.12,0.6 -3.37,0.6 h -4.81 z m -450.47,6.52 c -0.98,0 -1.9,0.17 -2.74,0.5 -0.82,0.32 -1.54,0.76 -2.14,1.32 -0.6,0.55 -1.06,1.18 -1.4,1.9 -0.33,0.71 -0.5,1.45 -0.5,2.22 0,0.69 0.13,1.28 0.38,1.76 0.26,0.48 0.59,0.89 1,1.22 0.43,0.33 0.9,0.62 1.42,0.86 0.54,0.23 1.08,0.44 1.64,0.64 0.56,0.19 1.1,0.38 1.62,0.58 0.54,0.2 1.01,0.45 1.42,0.74 0.43,0.28 0.77,0.62 1.02,1.02 0.26,0.4 0.38,0.89 0.38,1.48 0,0.67 -0.12,1.3 -0.38,1.9 -0.25,0.59 -0.61,1.11 -1.08,1.56 -0.45,0.45 -1,0.81 -1.66,1.08 -0.64,0.25 -1.36,0.38 -2.16,0.38 -0.82,0 -1.51,-0.11 -2.06,-0.32 -0.54,-0.21 -0.99,-0.45 -1.34,-0.7 -0.34,-0.27 -0.62,-0.51 -0.82,-0.72 -0.2,-0.21 -0.36,-0.32 -0.5,-0.32 -0.21,0 -0.39,0.11 -0.54,0.32 l -0.48,0.68 c 0.63,0.72 1.38,1.31 2.24,1.76 0.88,0.44 1.96,0.66 3.24,0.66 1.1,0 2.08,-0.19 2.96,-0.56 0.9,-0.37 1.66,-0.87 2.28,-1.48 0.64,-0.63 1.13,-1.34 1.46,-2.14 0.35,-0.8 0.52,-1.63 0.52,-2.48 0,-0.71 -0.12,-1.31 -0.38,-1.8 -0.25,-0.51 -0.59,-0.93 -1.02,-1.28 -0.41,-0.35 -0.88,-0.64 -1.42,-0.88 -0.52,-0.25 -1.06,-0.48 -1.62,-0.68 -0.56,-0.2 -1.1,-0.4 -1.64,-0.6 -0.52,-0.2 -0.99,-0.43 -1.42,-0.7 -0.41,-0.28 -0.74,-0.61 -1,-0.98 -0.25,-0.37 -0.38,-0.83 -0.38,-1.38 0,-0.56 0.13,-1.09 0.38,-1.58 0.27,-0.51 0.62,-0.95 1.06,-1.32 0.46,-0.39 0.98,-0.69 1.58,-0.92 0.62,-0.23 1.26,-0.34 1.94,-0.34 0.74,0 1.35,0.09 1.84,0.26 0.5,0.16 0.9,0.35 1.22,0.56 0.34,0.2 0.6,0.39 0.78,0.56 0.2,0.16 0.37,0.24 0.5,0.24 0.19,0 0.34,-0.09 0.44,-0.28 l 0.46,-0.66 c -0.64,-0.69 -1.37,-1.21 -2.2,-1.56 -0.81,-0.35 -1.78,-0.52 -2.9,-0.52 z m 210.76,0 c -1.44,0 -2.76,0.34 -3.96,1.02 -1.2,0.67 -2.24,1.57 -3.12,2.7 -0.87,1.13 -1.54,2.44 -2.02,3.92 -0.48,1.48 -0.73,3.03 -0.73,4.64 0,1.28 0.17,2.43 0.5,3.44 0.35,1 0.83,1.85 1.45,2.56 0.62,0.71 1.37,1.25 2.23,1.62 0.88,0.37 1.86,0.56 2.93,0.56 1.44,0 2.76,-0.34 3.96,-1.02 1.2,-0.68 2.23,-1.59 3.1,-2.72 0.86,-1.15 1.53,-2.46 2.01,-3.94 0.5,-1.48 0.74,-3.03 0.74,-4.64 0,-1.25 -0.17,-2.38 -0.51,-3.38 -0.34,-1.01 -0.82,-1.87 -1.44,-2.58 -0.62,-0.71 -1.36,-1.25 -2.24,-1.62 -0.87,-0.37 -1.84,-0.56 -2.9,-0.56 z m 63.12,0 c -1.44,0 -2.76,0.34 -3.96,1.02 -1.2,0.67 -2.24,1.57 -3.12,2.7 -0.87,1.13 -1.54,2.44 -2.02,3.92 -0.48,1.48 -0.72,3.03 -0.72,4.64 0,1.28 0.17,2.43 0.5,3.44 0.35,1 0.83,1.85 1.44,2.56 0.63,0.71 1.37,1.25 2.24,1.62 0.88,0.37 1.85,0.56 2.92,0.56 1.44,0 2.76,-0.34 3.96,-1.02 1.2,-0.68 2.23,-1.59 3.1,-2.72 0.87,-1.15 1.54,-2.46 2.02,-3.94 0.49,-1.48 0.74,-3.03 0.74,-4.64 0,-1.25 -0.17,-2.38 -0.52,-3.38 -0.33,-1.01 -0.81,-1.87 -1.44,-2.58 -0.61,-0.71 -1.36,-1.25 -2.24,-1.62 -0.87,-0.37 -1.83,-0.56 -2.9,-0.56 z m 63.96,0 c -1.5,0 -2.94,0.57 -4.3,1.72 -1.36,1.13 -2.56,2.73 -3.6,4.8 l 0.56,-5.56 c 0,-0.48 -0.23,-0.72 -0.7,-0.72 h -0.86 l -2.4,19.96 h 1.86 l 1.26,-10.64 c 0.97,-2.53 2.1,-4.49 3.38,-5.88 1.3,-1.39 2.7,-2.08 4.22,-2.08 0.66,0 1.17,0.13 1.54,0.38 0.39,0.25 0.67,0.63 0.84,1.14 0.18,0.49 0.26,1.11 0.26,1.84 0,0.73 -0.06,1.57 -0.18,2.52 l -1.5,12.72 h 1.86 l 1.34,-11.34 c 0.47,-1.23 0.99,-2.29 1.56,-3.2 0.59,-0.91 1.2,-1.66 1.84,-2.26 0.65,-0.6 1.32,-1.05 1.98,-1.34 0.68,-0.31 1.35,-0.46 2,-0.46 0.66,0 1.18,0.13 1.56,0.38 0.4,0.25 0.69,0.63 0.88,1.14 0.2,0.49 0.31,1.11 0.32,1.84 0.03,0.73 -0.02,1.57 -0.14,2.52 l -1.5,12.72 h 1.86 l 1.5,-12.72 c 0.15,-1.19 0.19,-2.24 0.12,-3.16 -0.05,-0.93 -0.23,-1.72 -0.54,-2.36 -0.3,-0.64 -0.74,-1.13 -1.32,-1.46 -0.56,-0.33 -1.27,-0.5 -2.14,-0.5 -0.71,0 -1.42,0.13 -2.14,0.4 -0.72,0.25 -1.42,0.65 -2.12,1.18 -0.68,0.52 -1.33,1.18 -1.96,1.98 -0.61,0.79 -1.18,1.71 -1.7,2.78 0.08,-1.01 0.08,-1.91 0,-2.7 -0.08,-0.79 -0.26,-1.45 -0.54,-1.98 -0.28,-0.55 -0.67,-0.96 -1.18,-1.24 -0.5,-0.28 -1.14,-0.42 -1.92,-0.42 z m 135.29,0 c -0.99,0 -1.9,0.17 -2.74,0.5 -0.83,0.32 -1.54,0.76 -2.14,1.32 -0.6,0.55 -1.07,1.18 -1.4,1.9 -0.33,0.71 -0.5,1.45 -0.5,2.22 0,0.69 0.12,1.28 0.38,1.76 0.25,0.48 0.58,0.89 1,1.22 0.42,0.33 0.9,0.62 1.42,0.86 0.53,0.23 1.08,0.44 1.64,0.64 0.56,0.19 1.1,0.38 1.62,0.58 0.53,0.2 1.01,0.45 1.42,0.74 0.43,0.28 0.77,0.62 1.02,1.02 0.25,0.4 0.38,0.89 0.38,1.48 0,0.67 -0.13,1.3 -0.38,1.9 -0.25,0.59 -0.61,1.11 -1.08,1.56 -0.45,0.45 -1.01,0.81 -1.66,1.08 -0.64,0.25 -1.36,0.38 -2.16,0.38 -0.83,0 -1.52,-0.11 -2.06,-0.32 -0.55,-0.21 -1,-0.45 -1.34,-0.7 -0.35,-0.27 -0.62,-0.51 -0.82,-0.72 -0.2,-0.21 -0.37,-0.32 -0.5,-0.32 -0.22,0 -0.39,0.11 -0.54,0.32 l -0.48,0.68 c 0.62,0.72 1.37,1.31 2.24,1.76 0.88,0.44 1.96,0.66 3.24,0.66 1.09,0 2.08,-0.19 2.96,-0.56 0.89,-0.37 1.65,-0.87 2.28,-1.48 0.64,-0.63 1.12,-1.34 1.46,-2.14 0.34,-0.8 0.52,-1.63 0.52,-2.48 0,-0.71 -0.13,-1.31 -0.38,-1.8 -0.25,-0.51 -0.59,-0.93 -1.02,-1.28 -0.41,-0.35 -0.89,-0.64 -1.42,-0.88 -0.52,-0.25 -1.06,-0.48 -1.62,-0.68 -0.56,-0.2 -1.11,-0.4 -1.64,-0.6 -0.52,-0.2 -0.99,-0.43 -1.42,-0.7 -0.41,-0.28 -0.75,-0.61 -1,-0.98 -0.25,-0.37 -0.38,-0.83 -0.38,-1.38 0,-0.56 0.13,-1.09 0.38,-1.58 0.27,-0.51 0.62,-0.95 1.06,-1.32 0.45,-0.39 0.98,-0.69 1.58,-0.92 0.61,-0.23 1.26,-0.34 1.94,-0.34 0.73,0 1.35,0.09 1.84,0.26 0.49,0.16 0.9,0.35 1.22,0.56 0.33,0.2 0.59,0.39 0.78,0.56 0.2,0.16 0.37,0.24 0.5,0.24 0.19,0 0.33,-0.09 0.44,-0.28 l 0.46,-0.66 c -0.64,-0.69 -1.37,-1.21 -2.2,-1.56 -0.81,-0.35 -1.78,-0.52 -2.9,-0.52 z m -393.84,0.02 c -1.05,0 -2.03,0.17 -2.94,0.52 -0.9,0.35 -1.73,0.82 -2.48,1.42 -0.74,0.6 -1.41,1.31 -2,2.12 -0.57,0.81 -1.05,1.69 -1.45,2.62 -0.39,0.93 -0.69,1.91 -0.89,2.92 -0.2,1.01 -0.29,2.02 -0.29,3.02 0,1.2 0.15,2.29 0.45,3.26 0.31,0.96 0.76,1.78 1.34,2.46 0.59,0.67 1.31,1.19 2.16,1.56 0.87,0.36 1.86,0.54 2.97,0.54 0.77,0 1.5,-0.08 2.18,-0.24 0.68,-0.15 1.33,-0.38 1.95,-0.7 0.64,-0.32 1.27,-0.73 1.89,-1.22 0.62,-0.51 1.26,-1.11 1.92,-1.8 l -0.44,-0.52 c -0.12,-0.13 -0.26,-0.2 -0.42,-0.2 -0.16,0 -0.35,0.08 -0.55,0.24 -0.18,0.15 -0.41,0.34 -0.68,0.58 -0.26,0.24 -0.57,0.49 -0.91,0.76 -0.34,0.27 -0.73,0.52 -1.18,0.76 -0.44,0.24 -0.95,0.44 -1.52,0.6 -0.56,0.15 -1.2,0.22 -1.9,0.22 -1.82,0 -3.18,-0.56 -4.08,-1.68 -0.9,-1.12 -1.34,-2.67 -1.34,-4.66 0,-0.27 0,-0.54 0.02,-0.82 0.02,-0.28 0.05,-0.55 0.08,-0.82 1.86,-0.2 3.49,-0.43 4.87,-0.7 1.39,-0.27 2.58,-0.56 3.56,-0.88 1,-0.33 1.83,-0.69 2.47,-1.08 0.64,-0.39 1.14,-0.8 1.52,-1.24 0.37,-0.44 0.63,-0.91 0.77,-1.4 0.15,-0.49 0.23,-1.01 0.23,-1.56 0,-0.41 -0.1,-0.85 -0.28,-1.32 -0.19,-0.48 -0.5,-0.92 -0.92,-1.32 -0.42,-0.41 -0.96,-0.75 -1.64,-1.02 -0.67,-0.28 -1.49,-0.42 -2.47,-0.42 z m 73.6,0 c -1.06,0 -2.03,0.17 -2.94,0.52 -0.91,0.35 -1.74,0.82 -2.48,1.42 -0.75,0.6 -1.42,1.31 -2,2.12 -0.58,0.81 -1.06,1.69 -1.46,2.62 -0.39,0.93 -0.68,1.91 -0.88,2.92 -0.2,1.01 -0.3,2.02 -0.3,3.02 0,1.2 0.15,2.29 0.46,3.26 0.31,0.96 0.75,1.78 1.34,2.46 0.58,0.67 1.31,1.19 2.16,1.56 0.87,0.36 1.85,0.54 2.96,0.54 0.77,0 1.5,-0.08 2.18,-0.24 0.68,-0.15 1.33,-0.38 1.96,-0.7 0.64,-0.32 1.27,-0.73 1.88,-1.22 0.63,-0.51 1.27,-1.11 1.92,-1.8 l -0.44,-0.52 c -0.12,-0.13 -0.26,-0.2 -0.42,-0.2 -0.16,0 -0.34,0.08 -0.54,0.24 -0.19,0.15 -0.41,0.34 -0.68,0.58 -0.27,0.24 -0.57,0.49 -0.92,0.76 -0.33,0.27 -0.73,0.52 -1.18,0.76 -0.44,0.24 -0.95,0.44 -1.52,0.6 -0.56,0.15 -1.19,0.22 -1.9,0.22 -1.81,0 -3.17,-0.56 -4.08,-1.68 -0.89,-1.12 -1.34,-2.67 -1.34,-4.66 0,-0.27 0.01,-0.54 0.02,-0.82 0.03,-0.28 0.05,-0.55 0.08,-0.82 1.87,-0.2 3.49,-0.43 4.88,-0.7 1.38,-0.27 2.57,-0.56 3.56,-0.88 1,-0.33 1.82,-0.69 2.46,-1.08 0.64,-0.39 1.15,-0.8 1.52,-1.24 0.37,-0.44 0.63,-0.91 0.78,-1.4 0.14,-0.49 0.22,-1.01 0.22,-1.56 0,-0.41 -0.09,-0.85 -0.28,-1.32 -0.19,-0.48 -0.49,-0.92 -0.92,-1.32 -0.41,-0.41 -0.96,-0.75 -1.64,-1.02 -0.67,-0.28 -1.49,-0.42 -2.46,-0.42 z m -168.59,0.02 c -1.09,0 -2.15,0.17 -3.18,0.52 -1.02,0.35 -1.99,0.83 -2.9,1.44 -0.9,0.61 -1.73,1.34 -2.48,2.18 -0.75,0.84 -1.39,1.76 -1.92,2.76 -0.53,1 -0.95,2.06 -1.26,3.18 -0.29,1.11 -0.44,2.24 -0.44,3.4 0,1.07 0.11,2.03 0.32,2.88 0.22,0.85 0.53,1.58 0.94,2.18 0.43,0.6 0.96,1.07 1.58,1.4 0.64,0.32 1.37,0.48 2.2,0.48 0.81,0 1.6,-0.17 2.36,-0.52 0.76,-0.35 1.49,-0.83 2.18,-1.46 0.7,-0.63 1.34,-1.38 1.94,-2.26 0.62,-0.89 1.17,-1.87 1.68,-2.94 l -0.68,6.2 c 0,0.19 0.05,0.35 0.14,0.5 0.1,0.15 0.27,0.22 0.54,0.22 h 0.92 l 2.34,-19.22 c -0.67,-0.35 -1.35,-0.59 -2.06,-0.72 -0.69,-0.15 -1.43,-0.22 -2.22,-0.22 z m 385.31,0 c -1.09,0 -2.15,0.17 -3.18,0.52 -1.02,0.35 -1.99,0.83 -2.9,1.44 -0.9,0.61 -1.73,1.34 -2.48,2.18 -0.74,0.84 -1.38,1.76 -1.92,2.76 -0.53,1 -0.95,2.06 -1.26,3.18 -0.29,1.11 -0.44,2.24 -0.44,3.4 0,1.07 0.11,2.03 0.33,2.88 0.21,0.85 0.52,1.58 0.93,2.18 0.43,0.6 0.96,1.07 1.58,1.4 0.64,0.32 1.38,0.48 2.2,0.48 0.82,0 1.6,-0.17 2.36,-0.52 0.76,-0.35 1.49,-0.83 2.18,-1.46 0.7,-0.63 1.34,-1.38 1.94,-2.26 0.62,-0.89 1.18,-1.87 1.68,-2.94 l -0.68,6.2 c 0,0.19 0.05,0.35 0.15,0.5 0.09,0.15 0.27,0.22 0.53,0.22 h 0.92 l 2.34,-19.22 c -0.66,-0.35 -1.35,-0.59 -2.06,-0.72 -0.69,-0.15 -1.43,-0.22 -2.22,-0.22 z m -74.85,0.04 c -0.2,0.01 -0.4,0.03 -0.59,0.06 -0.79,0.13 -1.55,0.48 -2.28,1.04 -0.72,0.56 -1.41,1.32 -2.06,2.28 -0.64,0.96 -1.24,2.09 -1.78,3.4 l 0.58,-5.9 c 0,-0.48 -0.24,-0.72 -0.7,-0.72 h -0.86 l -2.4,19.96 h 1.86 l 1.22,-10.16 c 0.48,-1.57 1.02,-2.93 1.62,-4.08 0.61,-1.15 1.27,-2.05 1.98,-2.72 0.72,-0.68 1.48,-1.11 2.3,-1.28 0.81,-0.19 1.67,-0.11 2.58,0.24 l 0.34,-1.78 c -0.61,-0.24 -1.22,-0.35 -1.81,-0.34 z m 92.97,0 c -0.2,0.01 -0.4,0.03 -0.59,0.06 -0.79,0.13 -1.55,0.48 -2.28,1.04 -0.72,0.56 -1.41,1.32 -2.06,2.28 -0.64,0.96 -1.24,2.09 -1.78,3.4 l 0.58,-5.9 c 0,-0.48 -0.24,-0.72 -0.7,-0.72 h -0.86 l -2.4,19.96 h 1.86 l 1.22,-10.16 c 0.48,-1.57 1.02,-2.93 1.62,-4.08 0.61,-1.15 1.27,-2.05 1.98,-2.72 0.72,-0.68 1.48,-1.11 2.3,-1.28 0.81,-0.19 1.67,-0.11 2.58,0.24 l 0.34,-1.78 c -0.61,-0.24 -1.22,-0.35 -1.81,-0.34 z m -298.85,0.22 5.03,9.24 -8.29,10.66 h 1.6 c 0.16,0 0.29,-0.04 0.38,-0.12 0.11,-0.08 0.21,-0.17 0.31,-0.28 l 6.68,-8.62 c 0.1,-0.16 0.21,-0.35 0.32,-0.56 l 4.68,9.14 c 0.12,0.29 0.34,0.44 0.66,0.44 h 1.59 l -5.58,-10.62 7.31,-9.28 h -1.69 c -0.22,0 -0.4,0.11 -0.54,0.34 l -5.75,7.38 c -0.12,0.16 -0.23,0.34 -0.33,0.54 l -4.17,-7.96 c -0.07,-0.11 -0.15,-0.18 -0.23,-0.22 -0.08,-0.05 -0.2,-0.08 -0.37,-0.08 z m 19.29,0 -2.42,19.9 h 1.86 l 2.42,-19.9 z m -28.98,1.12 c 0.7,0 1.28,0.09 1.74,0.28 0.48,0.17 0.87,0.39 1.17,0.66 0.29,0.27 0.49,0.57 0.61,0.9 0.14,0.32 0.21,0.62 0.21,0.9 0,0.39 -0.06,0.76 -0.16,1.12 -0.1,0.36 -0.29,0.71 -0.58,1.06 -0.28,0.33 -0.69,0.66 -1.23,0.98 -0.53,0.32 -1.22,0.62 -2.08,0.9 -0.85,0.27 -1.89,0.53 -3.11,0.78 -1.23,0.24 -2.69,0.45 -4.39,0.64 0.22,-1.08 0.54,-2.11 0.98,-3.1 0.46,-1 1.01,-1.88 1.66,-2.64 0.67,-0.76 1.43,-1.36 2.28,-1.8 0.87,-0.45 1.84,-0.68 2.9,-0.68 z m 73.6,0 c 0.69,0 1.27,0.09 1.74,0.28 0.48,0.17 0.87,0.39 1.16,0.66 0.29,0.27 0.5,0.57 0.62,0.9 0.13,0.32 0.2,0.62 0.2,0.9 0,0.39 -0.05,0.76 -0.16,1.12 -0.09,0.36 -0.29,0.71 -0.58,1.06 -0.28,0.33 -0.69,0.66 -1.22,0.98 -0.54,0.32 -1.23,0.62 -2.08,0.9 -0.86,0.27 -1.89,0.53 -3.12,0.78 -1.23,0.24 -2.69,0.45 -4.38,0.64 0.21,-1.08 0.54,-2.11 0.98,-3.1 0.45,-1 1.01,-1.88 1.66,-2.64 0.67,-0.76 1.42,-1.36 2.28,-1.8 0.86,-0.45 1.83,-0.68 2.9,-0.68 z m -168.71,0.04 c 0.44,0 0.88,0.03 1.3,0.1 0.43,0.05 0.84,0.15 1.24,0.3 l -1.02,8.18 c -0.47,1.32 -0.99,2.53 -1.58,3.62 -0.59,1.08 -1.22,2.01 -1.9,2.78 -0.66,0.77 -1.37,1.37 -2.1,1.8 -0.73,0.43 -1.48,0.64 -2.24,0.64 -1.28,0 -2.22,-0.49 -2.84,-1.48 -0.6,-1 -0.9,-2.39 -0.9,-4.18 0,-1.52 0.28,-2.99 0.82,-4.4 0.55,-1.41 1.28,-2.67 2.2,-3.76 0.92,-1.09 1.99,-1.97 3.2,-2.62 1.21,-0.65 2.49,-0.98 3.82,-0.98 z m 385.31,0 c 0.44,0 0.88,0.03 1.3,0.1 0.43,0.05 0.84,0.15 1.24,0.3 l -1.02,8.18 c -0.46,1.32 -0.99,2.53 -1.58,3.62 -0.58,1.08 -1.22,2.01 -1.9,2.78 -0.66,0.77 -1.36,1.37 -2.1,1.8 -0.73,0.43 -1.47,0.64 -2.23,0.64 -1.28,0 -2.23,-0.49 -2.84,-1.48 -0.6,-1 -0.91,-2.39 -0.91,-4.18 0,-1.52 0.28,-2.99 0.83,-4.4 0.54,-1.41 1.27,-2.67 2.19,-3.76 0.92,-1.09 1.99,-1.97 3.2,-2.62 1.22,-0.65 2.49,-0.98 3.82,-0.98 z m -158.81,0.06 c 1.68,0 2.99,0.57 3.93,1.72 0.95,1.15 1.42,2.79 1.42,4.92 0,1.37 -0.18,2.71 -0.55,4.02 -0.36,1.29 -0.88,2.45 -1.56,3.46 -0.68,1 -1.51,1.81 -2.47,2.42 -0.94,0.6 -2,0.9 -3.16,0.9 -1.69,0 -3.01,-0.58 -3.95,-1.74 -0.94,-1.17 -1.4,-2.82 -1.4,-4.94 0,-1.4 0.18,-2.75 0.56,-4.04 0.37,-1.29 0.89,-2.43 1.56,-3.42 0.68,-1 1.49,-1.8 2.44,-2.4 0.96,-0.6 2.02,-0.9 3.18,-0.9 z m 63.12,0 c 1.68,0 2.99,0.57 3.94,1.72 0.95,1.15 1.42,2.79 1.42,4.92 0,1.37 -0.19,2.71 -0.56,4.02 -0.36,1.29 -0.88,2.45 -1.56,3.46 -0.68,1 -1.5,1.81 -2.46,2.42 -0.95,0.6 -2,0.9 -3.16,0.9 -1.69,0 -3.01,-0.58 -3.96,-1.74 -0.93,-1.17 -1.4,-2.82 -1.4,-4.94 0,-1.4 0.19,-2.75 0.56,-4.04 0.37,-1.29 0.89,-2.43 1.56,-3.42 0.68,-1 1.49,-1.8 2.44,-2.4 0.96,-0.6 2.02,-0.9 3.18,-0.9 z m -148.56,0.02 c 1.31,0 2.3,0.5 2.98,1.5 0.68,0.99 1.02,2.37 1.02,4.16 0,0.87 -0.08,1.76 -0.26,2.68 -0.16,0.91 -0.4,1.79 -0.72,2.66 -0.3,0.87 -0.69,1.69 -1.15,2.48 -0.46,0.77 -0.98,1.45 -1.58,2.04 -0.59,0.59 -1.25,1.05 -1.99,1.4 -0.72,0.33 -1.5,0.5 -2.34,0.5 -0.46,0 -0.92,-0.05 -1.38,-0.14 -0.44,-0.11 -0.86,-0.27 -1.28,-0.5 -0.41,-0.23 -0.8,-0.52 -1.18,-0.88 -0.36,-0.37 -0.68,-0.83 -0.98,-1.36 l 0.7,-5.66 c 0.48,-1.33 1.04,-2.55 1.66,-3.64 0.63,-1.09 1.3,-2.03 2,-2.8 0.71,-0.77 1.44,-1.37 2.2,-1.8 0.78,-0.43 1.54,-0.64 2.3,-0.64 z m -102.14,15.26 c -0.52,0 -0.94,0.17 -1.26,0.5 -0.32,0.33 -0.48,0.73 -0.48,1.2 0,0.52 0.15,0.95 0.46,1.28 0.32,0.33 0.73,0.5 1.22,0.5 0.21,0 0.42,-0.03 0.62,-0.1 -0.07,0.6 -0.22,1.15 -0.46,1.64 -0.24,0.49 -0.49,0.93 -0.76,1.3 -0.27,0.39 -0.51,0.7 -0.72,0.94 -0.2,0.25 -0.3,0.43 -0.3,0.54 0,0.07 0.01,0.13 0.02,0.18 0.01,0.07 0.05,0.13 0.12,0.18 l 0.32,0.3 c 0.45,-0.43 0.87,-0.89 1.24,-1.4 0.37,-0.51 0.69,-1.03 0.96,-1.58 0.26,-0.55 0.47,-1.11 0.6,-1.68 0.15,-0.56 0.22,-1.11 0.22,-1.66 0,-0.64 -0.16,-1.15 -0.48,-1.54 -0.31,-0.4 -0.75,-0.6 -1.32,-0.6 z"
     fill="#26b8ce"
     style="fill:#000000" /></svg>
